#N canvas 260 112 555 619 10;
#X obj 0 595 cnv 15 552 21 empty \$0-pddp.cnv.footer empty 20 12 0
14 -228856 -66577 0;
#X obj 0 0 cnv 15 552 40 empty \$0-pddp.cnv.header max 3 12 0 18 -204280
-1 0;
#X obj 0 364 cnv 3 550 3 empty \$0-pddp.cnv.inlets inlets 8 12 0 13
-228856 -1 0;
#N canvas 51 246 494 368 META 0;
#X text 12 125 LIBRARY internal;
#X text 12 165 WEBSITE http://crca.ucsd.edu/~msp/;
#X text 12 25 LICENSE SIBSD;
#X text 12 145 AUTHOR Miller Puckette;
#X text 12 205 HELP_PATCH_AUTHORS This help patch was updated for Pd
version 0.35 test 28 by Dave Sabine as part of a project called pddp
proposed by Krzysztof Czaja to build comprehensive documentation for
Pd. Jonathan Wilkes revised the patch to conform to the PDDP template
for Pd version 0.42.;
#X text 12 5 KEYWORDS control;
#X text 12 45 DESCRIPTION choose the greater of two values;
#X text 12 65 INLET_0 float list bang;
#X text 12 85 INLET_1 float;
#X text 12 105 OUTLET_0 float;
#X text 12 185 RELEASE_DATE 1997;
#X restore 500 597 pd META;
#X obj 0 482 cnv 3 550 3 empty \$0-pddp.cnv.outlets outlets 8 12 0
13 -228856 -1 0;
#X obj 0 524 cnv 3 550 3 empty \$0-pddp.cnv.argument arguments 8 12
0 13 -228856 -1 0;
#X obj 0 568 cnv 3 550 3 empty \$0-pddp.cnv.more_info more_info 8 12
0 13 -228856 -1 0;
#N canvas 94 481 428 109 Related_objects 0;
#X obj 1 1 cnv 15 425 20 empty \$0-pddp.cnv.subheading empty 3 12 0
14 -204280 -1 0;
#X obj 23 42 min;
#X text 8 3 [max] Related Objects;
#X obj 63 42 clip;
#X restore 102 597 pd Related_objects;
#X obj 78 373 cnv 17 3 70 empty \$0-pddp.cnv.let.0 0 5 9 0 16 -228856
-162280 0;
#X text 98 424 list;
#X text 98 490 float;
#X obj 78 491 cnv 17 3 17 empty \$0-pddp.cnv.let.0 0 5 9 0 16 -228856
-162280 0;
#X obj 78 454 cnv 17 3 17 empty \$0-pddp.cnv.let.1 1 5 9 0 16 -228856
-162280 0;
#X text 98 453 float;
#X text 78 544 1) float;
#X text 98 372 bang;
#X text 98 397 float;
#X floatatom 186 168 5 0 0 0 - - -;
#X floatatom 186 222 5 0 0 0 - - -;
#X floatatom 228 168 5 0 0 0 - - -;
#X floatatom 316 168 5 0 0 0 - - -;
#X floatatom 316 223 5 0 0 0 - - -;
#X obj 497 3 max;
#X obj 469 20 pddp/pddplink http://wiki.puredata.info/en/max -text
pdpedia: max;
#X obj 159 168 bng 15 250 50 0 empty empty empty 17 7 0 10 -262144
-1 -1;
#X obj 186 195 max;
#X obj 316 195 max 5;
#X obj 4 597 pddp/pddplink all_about_help_patches.pd -text Usage Guide
;
#X text 11 23 2つの値の大きい方を選択;
#X text 168 544 - 右インレットからの入力値の初期値を設定する
;
#X text 169 372 - 最後の値を出力;
#X text 168 490 - 両インレットの値が比較され、大きい方が出力される
;
#X text 168 453 - 右インレットに入力されたfloat値が保存される
;
#X text 168 424 - 入力されたlistの先頭の2要素が、 それぞれ左右インレットへの入力値と解釈される
;
#X text 167 393 - この入力値が、右インレットに入力された値より大きい場合は
この値が出力される;
#X connect 17 0 25 0;
#X connect 19 0 25 1;
#X connect 20 0 26 0;
#X connect 24 0 25 0;
#X connect 25 0 18 0;
#X connect 26 0 21 0;
