#N canvas 257 59 555 619 10;
#X obj 0 595 cnv 15 552 21 empty \$0-pddp.cnv.footer empty 20 12 0
14 -228856 -66577 0;
#X obj 0 0 cnv 15 552 40 empty \$0-pddp.cnv.header moses 3 12 0 18
-204280 -1 0;
#X obj 0 302 cnv 3 550 3 empty \$0-pddp.cnv.inlets inlets 8 12 0 13
-228856 -1 0;
#N canvas 50 211 494 384 META 0;
#X text 12 145 LIBRARY internal;
#X text 12 185 WEBSITE http://crca.ucsd.edu/~msp/;
#X text 12 205 RELEASE_DATE 2009-06-12;
#X text 12 25 LICENSE SIBSD;
#X text 12 165 AUTHOR Miller Puckette;
#X text 12 225 HELP_PATCH_AUTHORS This help patch was updated for Pd
version 0.35 test 26 by Dave Sabine as part of a project called pddp
proposed by Krzysztof Czaja to build comprehensive documentation for
Pd. Jonathan Wilkes revised the patch to conform to the PDDP template
for Pd version 0.42.;
#X text 12 5 KEYWORDS control filter;
#X text 12 45 DESCRIPTION part a stream of numbers;
#X text 12 65 INLET_0 float list;
#X text 12 85 INLET_1 float;
#X text 12 105 OUTLET_0 float;
#X text 12 125 OUTLET_1 float;
#X restore 500 597 pd META;
#X obj 0 410 cnv 3 550 3 empty \$0-pddp.cnv.outlets outlets 8 12 0
13 -228856 -1 0;
#X obj 0 498 cnv 3 550 3 empty \$0-pddp.cnv.argument arguments 8 12
0 13 -228856 -1 0;
#X obj 0 539 cnv 3 550 3 empty \$0-pddp.cnv.more_info more_info 8 12
0 13 -228856 -1 0;
#N canvas 106 297 428 256 Related_objects 0;
#X obj 1 1 cnv 15 425 20 empty \$0-pddp.cnv.subheading empty 3 12 0
14 -204280 -1 0;
#X text 8 2 [moses] Related Objects;
#X text 19 168 The best places to find information about Pd's libraries
is:;
#X text 19 190 www.puredata.org and click on "Downloads" then "Software"
;
#X text 20 206 or;
#X text 19 221 iem.kug.ac.at/pdb/;
#X text 20 119 Externals are offered in Pd only if you have downloaded
and properly installed the appropriate library. These objects may or
may not exist in a single library.;
#X obj 22 42 list split;
#X text 20 80 Externals;
#X obj 20 98 pddp/helplink cyclone/split;
#X restore 102 597 pd Related_objects;
#X obj 78 311 cnv 17 3 65 empty \$0-pddp.cnv.let.0 0 5 9 0 16 -228856
-162280 0;
#X text 98 310 float;
#X text 98 350 list;
#X text 98 418 float;
#X obj 78 419 cnv 17 3 17 empty \$0-pddp.cnv.let.0 0 5 9 0 16 -228856
-162280 0;
#X obj 78 382 cnv 17 3 17 empty \$0-pddp.cnv.let.1 1 5 9 0 16 -228856
-162280 0;
#X text 98 381 float;
#X obj 455 20 pddp/pddplink http://wiki.puredata.info/en/moses -text
pdpedia: moses;
#X obj 483 3 moses;
#X floatatom 68 143 4 0 0 0 - - -;
#X floatatom 124 142 4 0 0 0 - - -;
#X floatatom 68 196 4 0 0 0 - - -;
#X floatatom 121 196 4 0 0 0 - - -;
#N canvas 103 360 428 202 More_info 0;
#X obj 1 1 cnv 15 425 20 empty \$0-pddp.cnv.subheading empty 3 12 0
14 -204280 -1 0;
#X obj 22 146 moses 0;
#X floatatom 22 170 5 0 0 0 - - -;
#X floatatom 65 170 5 0 0 0 - - -;
#X floatatom 22 124 5 0 0 0 - - -;
#X text 20 38 One way to think of [moses] is as a filter. For the following
example \, imagine that [moses] works as a low pass and high pass filter
simoultaneously -- for non-audio signals. Below you will see that negative
numbers will pass through the left outlet while positive numbers will
pass through the right outlet.;
#X text 8 2 [moses] More Info;
#X connect 1 0 2 0;
#X connect 1 1 3 0;
#X connect 4 0 1 0;
#X restore 102 548 pd More_info;
#X text 98 453 float;
#X obj 78 454 cnv 17 3 17 empty \$0-pddp.cnv.let.1 1 5 9 0 16 -228856
-162280 0;
#X obj 68 169 moses 10;
#X floatatom 327 221 5 0 0 0 - - -;
#X floatatom 327 267 5 0 0 0 - - -;
#X obj 327 244 moses 1.5;
#X floatatom 378 267 5 0 0 0 - - -;
#X text 81 516 1) float;
#X obj 4 597 pddp/pddplink all_about_help_patches.pd -text Usage Guide
;
#X obj 100 568 pddp/pddplink ../2.control.examples/18.conditional.pd
-text doc/2.control.examples/18.conditional.pd;
#X text 11 21 数値の流れを分割する;
#X text 67 66 「moses」は数値をとり、それがコントロール値より小さい場合は
左アウトレットから、大きいか同じ場合は右アウトレットからその数値を
出力する。コントロール値はアーギュメントにより初期化される（この例では
10）そして右インレットがその値を変化させる。;
#X text 247 164 コントロール値は、少数か整数のいずれか、
ナンバーボックスをシフトを押してドラッグすると
少数点の単位で値を変化させる事ができる。;
#X text 168 310 - このfloatがコントロール値より小さい場合は、左アウトレットから
同じか大きい場合は右アウトレットから値が出力される。
;
#X text 168 350 - listの先頭2つの要素がそれぞれ、左右インレットへの入力と解釈される
第3要素以降は切り捨てられる。;
#X text 167 381 - コントロール値を設定する;
#X text 168 418 - 左インレットへの入力値がコントロール値より小さい場合は
その値が左アウトレットから出力される;
#X text 168 453 - 左インレットへの入力値がコントロール値と同じか大きい場合は
その値が右アウトレットから出力される;
#X text 168 516 - （オプション）コントロール値を初期化する
;
#X connect 17 0 24 0;
#X connect 18 0 24 1;
#X connect 24 0 19 0;
#X connect 24 1 20 0;
#X connect 25 0 27 0;
#X connect 27 0 26 0;
#X connect 27 1 28 0;
