#N canvas 20 22 555 619 10;
#X obj 0 595 cnv 15 552 21 empty \$0-pddp.cnv.footer empty 20 12 0
14 -228856 -66577 0;
#X obj 0 0 cnv 15 552 40 empty \$0-pddp.cnv.header osc~ 3 12 0 18 -204280
-1 0;
#X obj 0 358 cnv 3 550 3 empty \$0-pddp.cnv.inlets inlets 8 12 0 13
-228856 -1 0;
#N canvas 51 245 494 344 META 0;
#X text 12 125 LIBRARY internal;
#X text 12 165 WEBSITE http://crca.ucsd.edu/~msp/;
#X text 12 25 LICENSE SIBSD;
#X text 12 145 AUTHOR Miller Puckette;
#X text 12 205 HELP_PATCH_AUTHORS Updated for Pd version 0.33. Jonathan
Wilkes revised the patch to conform to the PDDP template for Pd version
0.42.;
#X text 12 5 KEYWORDS signal trigonometry;
#X text 12 45 DESCRIPTION cosine wave oscillator;
#X text 12 65 INLET_0 signal float;
#X text 12 85 INLET_1 float;
#X text 12 105 OUTLET_0 signal;
#X text 12 185 RELEASE_DATE 1997;
#X restore 500 597 pd META;
#X obj 0 456 cnv 3 550 3 empty \$0-pddp.cnv.outlets outlets 8 12 0
13 -228856 -1 0;
#X obj 0 493 cnv 3 550 3 empty \$0-pddp.cnv.argument arguments 8 12
0 13 -228856 -1 0;
#X obj 0 567 cnv 3 550 3 empty \$0-pddp.cnv.more_info more_info 8 12
0 13 -228856 -1 0;
#N canvas 107 477 428 109 Related_objects 0;
#X obj 1 1 cnv 15 425 20 empty \$0-pddp.cnv.subheading empty 3 12 0
14 -204280 -1 0;
#X text 8 2 [osc~] Related Objects;
#X obj 83 42 cos~;
#X obj 127 42 tabread4~;
#X obj 23 42 phasor~;
#X restore 102 597 pd Related_objects;
#X obj 78 367 cnv 17 3 35 empty \$0-pddp.cnv.let.0 0 5 9 0 16 -228856
-162280 0;
#X obj 78 465 cnv 17 3 17 empty \$0-pddp.cnv.let.0 0 5 9 0 16 -228856
-162280 0;
#X obj 78 410 cnv 17 3 35 empty \$0-pddp.cnv.let.1 1 5 9 0 16 -228856
-162280 0;
#X obj 492 3 osc~;
#X obj 465 20 pddp/pddplink http://wiki.puredata.info/en/osc~ -text
pdpedia: osc~;
#X obj 229 253 dac~ 1;
#X obj 229 223 *~;
#X floatatom 65 126 0 0 0 0 - - -;
#X obj 243 195 line~;
#X msg 243 139 0.1 100;
#X msg 262 164 0 100;
#X text 314 134 on;
#X text 311 163 off;
#X obj 83 228 metro 500;
#X obj 65 155 osc~ 1000;
#N canvas 0 22 450 300 (subpatch) 0;
#X array \$0-array 100 float 0;
#X coords 0 -1 100 1 150 100 1;
#X restore 374 172 graph;
#X obj 83 203 loadbang;
#X text 168 511 - sets the initial frequency. If the argument is supplied
\, [osc~] takes floating-point messages to change frequency. If no
argument is supplied \, the input is taken to be an audio signal.;
#X obj 4 597 pddp/pddplink all_about_help_patches.pd -text Usage Guide
;
#X obj 455 51 pddp/dsp;
#X obj 66 253 tabwrite~ \$0-array;
#X text 280 188 エンベロープ;
#X text 280 201 ジェネレータ;
#X text 227 114 音量のコントロール:;
#X text 91 120 入力する数値が周波数 \; を変更する。
;
#X text 22 60 [osc~]オブジェクトはコサイン波を出力します。
\; 実数の数値が引数になっていたり、左インレットに入力されると
\; [osc~]は周波数を設定/変更する。;
#X text 11 23 コサイン波オシレーター;
#X text 226 270 オーディオ出力;
#X text 65 270 出力をグラフ化する;
#X text 167 429 -リストの場合は第１要素だけが使われる。
;
#X text 167 409 -右インレットに入力する数値が位相をリセットする。
;
#X text 168 386 -入力するシグナル（signal）が周波数を変更する。
;
#X text 168 366 -入力する数値（float）が周波数を変更する。
;
#X text 98 429 リスト;
#X text 98 386 シグナル;
#X text 98 366 数値;
#X text 98 409 数値;
#X text 98 464 シグナル;
#X text 80 511 1) 数値;
#X text 167 464 -出力されるコサイン波;
#X connect 14 0 13 0;
#X connect 15 0 22 0;
#X connect 16 0 14 1;
#X connect 17 0 16 0;
#X connect 18 0 16 0;
#X connect 21 0 28 0;
#X connect 22 0 14 0;
#X connect 22 0 28 0;
#X connect 24 0 21 0;
#X connect 24 0 21 0;
