#N canvas 0 22 566 637 10;
#X obj 0 595 cnv 15 552 21 empty \$0-pddp.cnv.footer empty 20 12 0
14 -228856 -66577 0;
#X obj 0 0 cnv 15 552 40 empty \$0-pddp.cnv.header outlet 3 12 0 18
-204280 -1 0;
#X obj 0 399 cnv 3 550 3 empty \$0-pddp.cnv.inlets inlets 8 12 0 13
-228856 -1 0;
#N canvas 46 242 494 344 META 0;
#X text 12 85 LIBRARY internal;
#X text 12 125 WEBSITE http://crca.ucsd.edu/~msp/;
#X text 12 25 LICENSE SIBSD;
#X text 12 105 AUTHOR Miller Puckette;
#X text 12 165 HELP_PATCH_AUTHORS Updated for Pd v0.41. Revised by
Jonathan Wilkes to conform to the PDDP template for Pd version 0.42.
;
#X text 12 45 DESCRIPTION control outlet for a subpatch;
#X text 12 65 INLET_0 anything;
#X text 12 5 KEYWORDS control nonlocal canvas_op;
#X text 12 145 RELEASE_DATE 1997;
#X restore 500 597 pd META;
#X obj 0 483 cnv 3 550 3 empty \$0-pddp.cnv.outlets outlets 8 12 0
13 -228856 -1 0;
#X obj 0 511 cnv 3 550 3 empty \$0-pddp.cnv.argument arguments 8 12
0 13 -228856 -1 0;
#X obj 0 566 cnv 3 550 3 empty \$0-pddp.cnv.more_info more_info 8 12
0 13 -228856 -1 0;
#N canvas 54 478 428 109 Related_objects 0;
#X obj 1 2 cnv 15 425 20 empty \$0-pddp.cnv.subheading empty 3 12 0
14 -204280 -1 0;
#X obj 22 44 inlet;
#X obj 67 44 outlet;
#X obj 118 44 inlet~;
#X obj 168 44 outlet;
#X obj 216 44 block~;
#X text 266 44 [switch~];
#X text 8 3 [outlet] Related Objects;
#X restore 102 598 pd Related_objects;
#X obj 78 408 cnv 17 3 17 empty \$0-pddp.cnv.let.0 0 5 9 0 16 -228856
-162280 0;
#X text 98 407 anything;
#X obj 477 3 outlet;
#X obj 451 20 pddp/pddplink http://wiki.puredata.info/en/outlet -text
pdpedia: outlet;
#X obj 373 259 print~;
#X obj 373 199 sig~ 12;
#X floatatom 130 203 0 0 0 0 - - -;
#X floatatom 130 255 0 0 0 0 - - -;
#X obj 373 237 bng 15 250 50 0 empty empty empty 17 7 0 10 -262144
-1 -1;
#N canvas 50 247 428 293 subpatch-with-inlets-and-outlets 0;
#X obj 67 68 inlet;
#X text 19 38 control inlet for receiving messages;
#X floatatom 67 96 0 0 0 0 - - -;
#X floatatom 67 218 0 0 0 0 - - -;
#X obj 67 250 outlet;
#X text 19 188 control outlet for sending message;
#X obj 339 84 inlet~;
#X obj 339 135 print~;
#X msg 354 109 bang;
#X obj 339 243 outlet~;
#X obj 339 217 sig~ 34;
#X text 332 38 same for;
#X text 333 57 signals.;
#X obj 0 1 cnv 15 425 20 empty \$0-pddp.cnv.subheading empty 3 12 0
14 -204280 -1 0;
#X text 7 2 [outlet] Creating Inlets/Outlets on Subpatches;
#X connect 0 0 2 0;
#X connect 3 0 4 0;
#X connect 6 0 7 0;
#X connect 8 0 7 0;
#X connect 10 0 9 0;
#X restore 130 229 pd subpatch-with-inlets-and-outlets;
#X obj 4 597 pddp/pddplink all_about_help_patches.pd -text Usage Guide
;
#X text 100 182 メッセージの入力と出力;
#X text 343 176 オーディオの入力と出力;
#X text 11 23 サブパッチのためのコントロールデータの出口
;
#X text 98 487 (なし);
#X text 98 515 (なし);
#X text 98 77 [outlet]オブジェクトは、サブパッチのオブジェクトから親パッチの中のオブジェクトへメッセージ
\; が送られるようにする。;
#X text 98 127 以下のサブパッチは[inlet]、[inlet~]、[outlet]そして[outlet~]オブジェクトを使って、
\; サブパッチの外からデータを取り込み、外へデータを出していく方法を示している。
;
#X text 168 407 -[outlet]に送られるあらゆる種類のメッセージをサブパッチのアウトレットへ
\; 通します。サブパッチの中に複数の[outlet~][outlet]がある場合、水平での
\; 並び順は親パッチの中にあるサブパッチのアウトレットの配置に連動する。
;
#X text 167 515 -[outlet]でシンボルの引数を設定しても無視される。しかし、[outlet]で数値の
\; 引数を設定すると[outlet]は作成されない。;
#X connect 13 0 17 1;
#X connect 14 0 17 0;
#X connect 16 0 12 0;
#X connect 17 0 15 0;
#X connect 17 1 12 0;
